<svg width="62" height="31" viewBox="0 0 62 31" fill="none" xmlns="http://www.w3.org/2000/svg">
<path d="M34 6.70269L34 12.578C34 13.8328 33.4428 14.8071 32.27 15.4123L29.6751 16.8589C29.135 17.1838 28.5935 17.3314 27.9608 17.3314L25.7221 17.3314C25.3972 17.3314 25.2576 17.4495 25.2576 17.73L25.2576 22.5571C25.2576 22.8081 25.135 23 24.9027 23L22.4161 23C22.1225 23 22 22.8081 22 22.5571L22 4.59173C22 4.32599 22.1226 4.23745 22.4161 4.23745L24.9027 4.23745C25.1507 4.23745 27.0769 4.17193 27.0769 4.45238L24.0034 4.60644C23.9891 4.08597 25.4115 4.34083 25.7364 4.23745L30.1752 4.23745C30.4374 4.14892 30.9263 4.00127 31.1571 4.00127C32.4239 3.957 33.9843 5.07881 33.9843 6.68797M25.2433 7.0127L25.2433 14.4085C25.2433 14.7333 25.3815 14.8956 25.7364 14.8956L30.2465 14.8956C30.5857 14.8956 30.7097 14.7333 30.7097 14.4085L30.7097 7.0127C30.7097 6.73224 30.5857 6.61415 30.2465 6.61415L25.7364 6.61415C25.3972 6.61415 25.2433 6.73224 25.2433 7.0127Z" fill="black"/>
<path d="M50.4723 23.045C48.8553 23.045 48 21.7377 48 20.6174V11.4001C48 11.1334 48.1069 11 48.3608 11H50.4723C50.6861 11 50.8331 11.12 50.8331 11.4001V20.2972C50.8331 20.5506 50.94 20.6841 51.2341 20.6841H55.1096C55.3635 20.6841 55.5372 20.5639 55.5372 20.2972V11.4001C55.5372 11.1334 55.6441 11 55.8981 11H58.0095C58.2368 11 58.3971 11.12 58.3971 11.4001V24.8324C58.3971 25.1659 58.2902 25.486 58.1432 25.8062L56.6999 28.1538C56.5797 28.3673 56.3792 28.4873 56.1788 28.4873H55.9115C55.6576 28.4873 55.5507 28.3406 55.5507 28.1137V22.1647C55.5507 21.9111 55.4037 21.8044 55.1764 21.8711L51.1272 23.0049C50.94 23.045 50.6995 23.045 50.5124 23.045" fill="black"/>
<path d="M37.4457 23.0183C36.1093 23.0183 35 21.938 35 20.5906V15.2818C35 14.1479 35.4812 13.281 36.4834 12.734L38.7419 11.4268C39.2097 11.1334 39.6775 11 40.1987 11H45.0364C45.2636 11 45.3972 11.1201 45.3972 11.4002V22.5115C45.3972 22.7516 45.2769 22.8316 45.0364 22.8316H42.8848C42.6443 22.8316 42.5641 22.7516 42.5641 22.4981V22.1647C42.5641 21.8978 42.4171 21.7778 42.1365 21.8713L38.0871 22.965C37.8466 23.0318 37.6595 23.0318 37.459 23.0318M42.5641 20.3105V13.6278C42.5641 13.3343 42.4171 13.1876 42.1365 13.1876H38.2341C37.9402 13.1876 37.8333 13.3343 37.8333 13.6278V20.3105C37.8333 20.5641 37.9402 20.6708 38.2341 20.6708H42.1365C42.4171 20.6708 42.5641 20.5641 42.5641 20.3105Z" fill="black"/>
<path d="M17.9974 23.1575C16.8344 24.2656 15.5645 24.0907 14.3422 23.5657C13.0486 23.0291 11.8618 23.0058 10.497 23.5657C8.78802 24.289 7.88607 24.079 6.86544 23.1575C1.07395 17.2899 1.92843 8.35432 8.5032 8.0277C10.1054 8.10935 11.2209 8.89092 12.1585 8.96091C13.5589 8.68095 14.8999 7.87605 16.3953 7.98104C18.1873 8.12102 19.5403 8.82093 20.4303 10.0808C16.7276 12.2622 17.6058 17.0566 21 18.3981C20.3235 20.1478 19.4453 21.886 17.9856 23.1691L17.9974 23.1575ZM12.0398 7.95771C11.8618 5.35637 14.0099 3.20997 16.4784 3C16.8225 6.00962 13.7013 8.24934 12.0398 7.95771Z" fill="black"/>
<rect x="1" y="1" width="60" height="29" rx="5" stroke="black" stroke-width="2"/>
</svg>
